<svg xmlns="http://www.w3.org/2000/svg" fill="none" width="44" height="44" viewBox="0 0 44 44" minWidth="44px" minHeight="44px">
  <g clip-path="url(#a)">
    <path fill="#eb1000" d="M22 0a22 22 0 1 1 0 44 22 22 0 0 1 0-44Z"/>
    <path fill="#fff" d="M30 10c.3.7-.2 6.3 8.8 9.7-.6 1.3-3.5 2.5-8.6 3.7-.7-7.5-2-11.3-.1-13.4Z"/>
    <path fill="#000" d="m31.6 22.8-1.2.3c0-1.9-.3-3.4-.5-4.9a1.3 1.3 0 1 0 0-2.4.8.8 0 0 1-.2 1.5c-.4-2.7-.6-4.9.3-6.9 0 2.3 1 4.3 2.7 6 1.6 1.6 3.8 2.8 5.6 3.3.1 0 .1.2 0 .4l-.5.3c-1.7 1-3.8 1.9-6.2 2.4Zm8.3-4.2A1.9 1.9 0 0 0 36 18c-2.9-1.5-6.2-4.6-5.4-9 .6-.9 1.5-1.7 2.6-2.6-2.2-.2-4.5.2-6.7 1 0-1.1.1-2.4.5-3.8-2.2.5-4.2 1.7-6 3.3a14 14 0 0 1-.9-3.8A14.3 14.3 0 0 0 16 8.5c-.8-.9-1.6-1.9-2.3-3.2-1.2 1.8-1.9 4-2.1 6.4-1-.5-2-1.2-3.2-2.1-.5 2.1-.3 4.5.3 6.8a12 12 0 0 1-3.8-1c.3 2.3 1.3 4.4 2.7 6.3-1.1.4-2.3.5-3.8.6 1 1.9 2.8 3.5 4.7 4.8-.9.7-2 1.4-3.4 2a16 16 0 0 0 6.2 2.8 13 13 0 0 1-2.5 2.9c2.1.7 4.5.8 6.8.4-.2 1.2-.6 2.3-1.3 3.7 2.2-.1 4.5-.9 6.5-2 .2 1.1.3 2.4.2 3.9A17.6 17.6 0 0 0 30.5 25v-1.4c3.5-.6 6.1-1.8 7.6-2.7a3 3 0 0 0 1.3-1.2c.3-.3.5-.8.5-1.2Z"/>
  </g>
  <defs>
    <clipPath id="a">
      <path fill="#fff" d="M0 0h44v44H0z"/>
    </clipPath>
  </defs>
</svg>
